# xmcd
#
# Track frame offsets:
#	150
#	13332
#	30113
#	45153
#	61038
#	77756
#	95189
#	111540
#	129699
#	146132
#	160395
#	176105
#	189375
#	211009
#	225292
#
# Disc length: 3190 seconds
#
# Revision: 0
# Processed by: cddbd v1.5.2PL0 Copyright (c) Steve Scherf et al.
# Submitted via: EasyCDDAExtractor 12.0.1.1
#
DISCID=c40c740f
DTITLE=Mark Bender - Ein Haus am Meer
DYEAR=2007
DGENRE=Country
TTITLE0=Sternschnuppe
TTITLE1=Die erste Nacht in Liverpool
TTITLE2=Ins Herz geschnitzt
TTITLE3=Tattoos des Lebens
TTITLE4=Einfach in der Sonne liegen
TTITLE5=Ein Haus am Meer
TTITLE6=Auch wenn du es nicht siehst
TTITLE7=Linnedance-Lady
TTITLE8=Golden Cowboy
TTITLE9=Wir haben es uns verdient
TTITLE10=Nachts
TTITLE11=Mein Licht in grauen Stunden
TTITLE12=Kinder von morgen
TTITLE13=Meet Me In Heaven (bonus)
TTITLE14=Rose Of My Heart (Bonus)
EXTD=
EXTT0=
EXTT1=
EXTT2=
EXTT3=
EXTT4=
EXTT5=
EXTT6=
EXTT7=
EXTT8=
EXTT9=
EXTT10=
EXTT11=
EXTT12=
EXTT13=
EXTT14=
PLAYORDER=
